<?xml version="1.0" encoding="UTF-8"?><svg id="Ebene_2" xmlns="http://www.w3.org/2000/svg" viewBox="0 0 638.42 542.23"><defs><style>.cls-1{fill:#24a88e;}</style></defs><g id="Illustration"><path class="cls-1" d="m527.47,204.25l40.4.25v216.06c0,11.14-9.12,20.28-20.28,20.28h-223.09v20.28c0,40.56,40.56,40.56,40.56,40.56h73.95c3.93,0,7.17,3.24,7.17,7.19v33.36H121.68v-33.36c0-3.94,3.25-7.19,7.22-7.19h74.86s39.61,0,39.61-40.56v-20.28H20.28c-11.15,0-20.28-9.14-20.28-20.28V75.78c0-11.15,9.13-20.28,20.28-20.28h395.61v40.56H40.56v283.93h486.75v-175.74m-20.28,216.3h20.28v-20.28h-20.28v20.28Z"/><path class="cls-1" d="m340.73,197.38v27.23c0,9.71-3.43,16.12-9.12,20.28v34.47c19.68,7.97,58,30.63,63.87,33.98,7.31,4.15,9.12,8.1,9.12,17.7v21.46c0,2.51-2.05,4.56-4.56,4.56h-200.74c-2.51,0-4.56-2.05-4.56-4.56v-21.46c0-9.6,1.82-13.55,9.12-17.7,5.87-3.34,45.33-26.01,63.87-33.98v-34.37c-5.69-4.14-9.12-10.57-9.12-20.38v-27.23c0-22.58,13.69-41.06,41.06-41.06s41.06,18.48,41.06,41.06ZM624.23,0c7.8,0,14.2,6.39,14.2,14.2v113.59c0,7.81-6.4,14.2-14.2,14.2h-71l-56.8,56.79v-56.79h-42.59c-7.81,0-14.2-6.39-14.2-14.2V14.2c0-7.81,6.39-14.2,14.2-14.2h170.38Z"/></g></svg>