<?xml version="1.0" encoding="UTF-8"?><svg id="Ebene_2" xmlns="http://www.w3.org/2000/svg" viewBox="0 0 638.42 509.22"><defs><style>.cls-1{fill:#24a88e;}</style></defs><g id="Illustration"><path class="cls-1" d="m500.04,188.82l38.3.24v204.82c0,10.56-8.64,19.23-19.23,19.23h-211.49v19.23c0,38.45,38.45,38.45,38.45,38.45h70.1c3.72,0,6.8,3.08,6.8,6.81v31.63H115.35v-31.63c0-3.74,3.08-6.81,6.84-6.81h70.97s37.55,0,37.55-38.45v-19.23H19.23c-10.57,0-19.23-8.66-19.23-19.23V67.03c0-10.57,8.66-19.23,19.23-19.23h375.03v38.45H38.45v269.16h461.42v-166.6m-19.23,205.05h19.23v-19.23h-19.23v19.23Z"/><path class="cls-1" d="m507.19.71l5.13,20.48c4.98,1.33,9.7,3.29,14.05,5.81l18.08-10.85c5.31,4.09,10.05,8.83,14.14,14.13l-10.86,18.08c2.52,4.37,4.49,9.08,5.82,14.06l20.48,5.12c.43,3.27.72,6.59.72,9.98s-.29,6.71-.72,9.99l-20.48,5.12c-1.33,4.98-3.3,9.69-5.82,14.05l10.86,18.08c-4.08,5.3-8.84,10.05-14.13,14.13l-18.08-10.85c-4.37,2.53-9.09,4.48-14.07,5.81l-5.13,20.48c-3.27.43-6.58.7-9.98.7s-6.7-.28-9.98-.7l-5.12-20.48c-4.98-1.33-9.69-3.29-14.06-5.81l-18.05,10.85c-5.32-4.09-10.06-8.83-14.14-14.13l10.83-18.08c-2.53-4.36-4.48-9.08-5.84-14.06l-20.43-5.12c-.45-3.28-.71-6.59-.71-9.99s.26-6.71.71-9.98l20.43-5.12c1.36-4.99,3.31-9.7,5.84-14.06l-10.83-18.08c4.09-5.3,8.82-10.05,14.14-14.13l18.06,10.86c4.36-2.52,9.07-4.48,14.05-5.81l5.12-20.48c3.28-.42,6.58-.71,9.98-.71s6.71.29,9.98.71Zm-37.1,76.82c0,14.98,12.14,27.12,27.11,27.12s27.13-12.14,27.13-27.12-12.15-27.12-27.13-27.12-27.11,12.14-27.11,27.12Zm135.91,21.09l2.46,9.83.36.1c2.09.58,4.13,1.42,6.06,2.49l.33.19,8.67-5.2c2.72,2.14,4.9,4.34,6.79,6.78l-5.21,8.68.19.33c1.05,1.91,1.9,3.94,2.51,6.06l.1.36,9.82,2.46c.23,1.8.34,3.29.34,4.79,0,1.64-.14,3.23-.34,4.8l-9.82,2.46-.1.36c-.61,2.12-1.45,4.16-2.51,6.06l-.17.33,5.19,8.67c-2.14,2.72-4.33,4.93-6.78,6.81l-8.67-5.25-.33.19c-1.9,1.1-3.94,1.95-6.07,2.53l-.36.13-2.46,9.8c-1.81.19-3.28.32-4.8.32-1.62,0-3.22-.13-4.79-.32l-2.46-9.8-.35-.13c-2.12-.58-4.16-1.43-6.07-2.53l-.33-.13-8.67,5.19c-2.74-2.14-4.9-4.35-6.79-6.81l5.21-8.67-.19-.33c-1.07-1.93-1.91-3.96-2.5-6.06l-.1-.36-9.83-2.46c-.21-1.81-.34-3.29-.34-4.81,0-1.62.14-3.21.34-4.79l9.83-2.46.1-.36c.58-2.08,1.43-4.12,2.51-6.06l.18-.33-5.21-8.68c2.13-2.71,4.33-4.88,6.79-6.78l8.68,5.2.33-.19c1.93-1.07,3.97-1.91,6.06-2.49l.35-.1,2.46-9.83c1.81-.22,3.29-.34,4.79-.34,1.63,0,3.22.14,4.8.34Zm-18.72,36.87c0,7.69,6.24,13.94,13.92,13.94s13.94-6.25,13.94-13.94-6.25-13.92-13.94-13.92-13.92,6.25-13.92,13.92Z"/></g></svg>