<?xml version="1.0" encoding="UTF-8"?><svg id="Ebene_2" xmlns="http://www.w3.org/2000/svg" viewBox="0 0 638.42 574.3"><defs><style>.cls-1{fill:#24a88e;}</style></defs><g id="Illustration"><path class="cls-1" d="m544.22,225.6l41.68.26v222.91c0,11.5-9.41,20.93-20.93,20.93h-230.17v20.92c0,41.85,41.85,41.85,41.85,41.85h76.3c4.05,0,7.4,3.35,7.4,7.42v34.42H125.55v-34.42c0-4.07,3.35-7.42,7.45-7.42h77.24s40.87,0,40.87-41.85v-20.92H20.93c-11.5,0-20.93-9.43-20.93-20.93V93.04c0-11.51,9.42-20.93,20.93-20.93h408.16v41.85H41.85v292.95h502.19v-181.32m-20.93,223.17h20.93v-20.92h-20.93v20.92Z"/><path class="cls-1" d="m494.34,164.33c7.99,7.94,8.82,20.72,1.95,29.72,0,0-3.23,3.62-6.33,5.7-8.8,5.81-21.52,8.65-38.92,8.7-5.94.02-12.53-.3-20.12-.96-.94-.08-1.71-.82-1.81-1.75-.13-.94.45-1.83,1.34-2.14,17.66-5.98,22.17-18.45,25.8-28.07,5.22-13.83,15.97-17.07,22.02-17.09,6.05-.01,11.78,1.63,16.07,5.89Zm131.41-132.31c1.6,1.59,2.02,3.68.42,5.94-.14.14-69.83,90.64-76.71,99.21-6.88,8.58-13.43,14.04-15.45,15.54-2.02,1.48-22.86,13.57-22.86,13.57-1.55.68-2.68-.08-2.97-1.26-.93-3.61-2.62-6.78-5.25-9.4-2.68-2.66-5.97-4.23-9.65-5.24-1.72-.47-2.1-1.6-1.32-2.94,0,0,11.28-20.71,12.93-22.81,1.63-2.1,9.17-9.52,16.26-15.86,7.1-6.35,95.89-74.92,97.63-76.22,2.27-1.72,5.37-2.12,6.98-.53h0Z"/><path class="cls-1" d="m637.14,163.94c1.67,1.48,1.71,3.98.16,5.55l-28.11,28.1c-1.56,1.53-4.07,1.53-5.56-.13l-46.28-51.02,28.28-29.65,51.5,47.16Z"/><path class="cls-1" d="m541.15,73.54l-12-12c6.77-20.7-1.96-43.74-21.75-54.89h0c-15.1-8.49-31.71-9.69-47.21,1.35l39.92,21.32-22.31,35.76-38.73-19.51c-1.39,19.01,8.16,32.76,23.25,41.25,12.51,7.02,26.68,7.98,39,3.59l11.19,11.19,28.65-28.06Z"/></g></svg>