<?xml version="1.0" encoding="utf-8"?>
<!-- Generator: Adobe Illustrator 23.0.1, SVG Export Plug-In . SVG Version: 6.00 Build 0)  -->
<svg version="1.1" id="Layer_1" xmlns="http://www.w3.org/2000/svg" xmlns:xlink="http://www.w3.org/1999/xlink" x="0px" y="0px"
	 viewBox="0 0 193.6 49" style="enable-background:new 0 0 193.6 49;" xml:space="preserve">
<style type="text/css">
	.st0{fill:#1ED760;}
</style>
<g id="Gruppe_8448" transform="translate(-2480 -63.609)">
	<path id="Pfad_9175" class="st0" d="M2542.8,87.9c0.1-6.5-5.1-11.8-11.6-11.8c-0.1,0-0.3,0-0.4,0h0c-6.4-0.2-11.8,4.8-12,11.2
		c0,0.2,0,0.5,0,0.7c-0.2,6.4,4.9,11.8,11.3,12c0.2,0,0.5,0,0.7,0c1.9,0,3.7-0.7,5.2-1.9l0,2.5c0.1,2.8-2,5.1-4.8,5.3
		c-0.1,0-0.3,0-0.4,0c-1.9,0-3.6-0.9-4.5-2.5l-5.6,3.9c2.2,3.4,6.1,5.4,10.2,5.3c6.4,0.2,11.8-4.9,12-11.3c0-0.2,0-0.4,0-0.7
		L2542.8,87.9z M2530.8,93.3L2530.8,93.3c-2.8,0.1-5.1-2.2-5.2-5c0-0.1,0-0.2,0-0.3c-0.1-2.8,2.1-5.2,5-5.2c0.1,0,0.2,0,0.2,0l0,0
		c2.8-0.1,5.2,2.2,5.2,5c0,0.1,0,0.2,0,0.2c0.1,2.8-2.1,5.2-4.9,5.3C2531.1,93.3,2531,93.3,2530.8,93.3L2530.8,93.3z"/>
	<path id="Pfad_9176" class="st0" d="M2515,99.7h-6.8V76.6h6.8V99.7z"/>
	<path id="Pfad_9177" class="st0" d="M2581.8,88.1c0-6.6,5.4-12,12-12c6.6,0,12,5.4,12,12c0,6.6-5.4,12-12,12
		C2587.2,100.1,2581.8,94.7,2581.8,88.1C2581.8,88.1,2581.8,88.1,2581.8,88.1z M2599,88.1c0-2.9-2.3-5.2-5.2-5.2s-5.2,2.3-5.2,5.2
		c0,2.9,2.3,5.2,5.1,5.3c2.9,0,5.2-2.3,5.3-5.1C2599,88.2,2599,88.1,2599,88.1z"/>
	<g id="Gruppe_8422" transform="translate(0 0.396)">
		<path id="Pfad_9178" class="st0" d="M2503.9,63.6h-6.9v13.1c-1.6-0.7-3.3-1-5.1-1c-6.4-0.2-11.8,4.8-12,11.2c0,0.2,0,0.5,0,0.7
			c-0.2,6.4,4.8,11.8,11.3,12c0.2,0,0.5,0,0.7,0c6.4,0.2,11.8-4.9,12-11.4c0-0.2,0-0.4,0-0.6L2503.9,63.6z M2492,92.9
			c-2.8,0.1-5.1-2.2-5.2-5c0-0.1,0-0.2,0-0.3c-0.1-2.8,2.1-5.2,5-5.2c0.1,0,0.2,0,0.2,0c2.8-0.1,5.2,2.2,5.2,5c0,0.1,0,0.2,0,0.2
			c0.1,2.8-2.1,5.2-4.9,5.3C2492.2,92.9,2492.1,92.9,2492,92.9z"/>
		<path id="Pfad_9179" d="M2503.9,86.8"/>
	</g>
	<g id="Gruppe_8423" transform="translate(169.6 12.509)">
		<path id="Pfad_9180" class="st0" d="M2480,99.7h6.9V86.5c1.6,0.7,3.3,1,5.1,1c6.4,0.2,11.8-4.8,12-11.2c0-0.2,0-0.5,0-0.7
			c0-6.6-5.4-12-12-12c-6.6,0-12,5.4-12,12c0,0,0,0,0,0L2480,99.7z M2492,70.3c2.8-0.1,5.1,2.2,5.2,5c0,0.1,0,0.2,0,0.3
			c0,2.9-2.3,5.2-5.2,5.2s-5.2-2.3-5.2-5.2c-0.1-2.8,2.1-5.2,4.9-5.3C2491.8,70.3,2491.9,70.3,2492,70.3z"/>
		<path id="Pfad_9181" d="M2480.1,76.4"/>
	</g>
	<path id="Pfad_9182" class="st0" d="M2511.6,63.6c2.2,0,4,1.7,4,3.9c0,0,0,0.1,0,0.1c0,2.2-1.7,4-3.9,4.1c0,0,0,0,0,0
		c-2.2,0-4.1-1.8-4.1-4.1C2507.6,65.4,2509.4,63.6,2511.6,63.6C2511.6,63.6,2511.6,63.6,2511.6,63.6z"/>
	<path id="Pfad_9183" class="st0" d="M2553.9,99.7h-6.8V76.6h6.8V99.7z"/>
	<g id="Gruppe_8424" transform="translate(23.851 23.605)">
		<path id="Pfad_9184" d="M2480,63.6"/>
	</g>
	<g id="Gruppe_8425" transform="translate(169.669 25.347)">
		<path id="Pfad_9185" d="M2480,63.6"/>
	</g>
	<path id="Pfad_9186" class="st0" d="M2550.5,63.6c2.2,0,4,1.7,4,3.9c0,0,0,0.1,0,0.1c0,2.2-1.7,4-3.9,4c0,0,0,0,0,0
		c-2.2,0-4.1-1.8-4.1-4C2546.5,65.4,2548.3,63.6,2550.5,63.6C2550.5,63.6,2550.5,63.6,2550.5,63.6z"/>
	<path id="Pfad_9187" class="st0" d="M2635.2,76.1c-2.8,0.1-5.4,1.2-7.3,3.2c-2.4-2.2-5.5-3.3-8.7-3.2c-5.5,0-9.9,4.3-10,9.8
		c0,0.1,0,0.2,0,0.3v13.4h6.8V87.3c0-3.3,1.8-4.6,3.9-4.6c2,0,3.9,1.1,3.9,4.6l0,0l0,12.3h6.8V87.3c0-3.4,1.9-4.6,3.9-4.6
		c2,0,3.9,1.2,3.9,4.5v12.4h6.8V86.2c0.1-5.4-4.2-10-9.6-10.1C2635.4,76.1,2635.3,76.1,2635.2,76.1z"/>
	<g id="Gruppe_8426" transform="translate(77.651 12.53)">
		<path id="Pfad_9188" class="st0" d="M2492,80.8c-2.8,0.1-5.1-2.2-5.2-5c0-0.1,0-0.2,0-0.3c0-2.9,2.3-5.2,5.2-5.2
			c1.8,0,3.5,1,4.5,2.5l5.6-3.9c-2.2-3.4-6.1-5.4-10.2-5.3c-6.4-0.2-11.8,4.8-12,11.2c0,0.2,0,0.5,0,0.7c-0.2,6.4,4.8,11.8,11.3,12
			c0.2,0,0.5,0,0.7,0c4,0.1,7.8-1.9,10.1-5.3l-5.6-3.9C2495.5,80,2493.8,80.9,2492,80.8z"/>
	</g>
</g>
</svg>
